<?xml version="1.0" encoding="utf-8"?>
<svg viewBox="0 0 202 40" fill="none" xmlns="http://www.w3.org/2000/svg" xmlns:xlink="http://www.w3.org/1999/xlink">
  <defs>
    <linearGradient id="paint0_linear_425_166" x1="4.66832" y1="24.1098" x2="34.1078" y2="13.9886" gradientUnits="userSpaceOnUse">
      <stop stop-color="#00a5c7"/>
      <stop offset="1" stop-color="#53cc56"/>
    </linearGradient>
    <linearGradient id="gradient-0-0" gradientUnits="userSpaceOnUse" x1="82.5" y1="7.391" x2="82.5" y2="32.61" gradientTransform="matrix(-0.108912, -0.881127, 6.278064, -0.776011, 8.011474, 102.436531)" xlink:href="#gradient-0"/>
    <linearGradient id="gradient-0">
      <stop offset="0" style="stop-color: rgb(0, 165, 199);"/>
      <stop offset="1" style="stop-color: rgb(83, 204, 86);"/>
    </linearGradient>
  </defs>
  <circle cx="17.5" cy="19.5" r="13.5" fill="url(#paint0_linear_425_166)"/>
  <path d="M10.4286 15.1351C14.6075 14.0893 18.7766 13.046 22.9559 12C23.1752 12.848 23.3923 13.6879 23.6118 14.5371C20.3486 15.3537 17.0907 16.1692 13.8329 16.9846C13.8336 16.9898 13.8342 16.9949 13.835 17.0001H23.9228C23.9245 17.037 23.9274 17.0668 23.9274 17.0969C23.9276 19.2878 23.9287 21.4789 23.927 23.6698C23.926 24.8933 22.9172 25.9325 21.6794 25.9896C21.5589 25.9952 21.4381 25.9986 21.3174 25.9986C18.6832 25.9992 16.049 25.9995 13.415 25.9986C12.7566 25.9984 12.1814 25.7789 11.7114 25.3255C11.2836 24.9126 11.0414 24.4063 11.0043 23.8126C10.9969 23.6941 10.9946 23.5752 10.9946 23.4565C10.994 21.5189 10.9931 19.5814 10.9959 17.644C10.9963 17.4423 10.9738 17.2479 10.9213 17.0522C10.7567 16.4395 10.6021 15.8244 10.4438 15.21C10.4385 15.1894 10.4353 15.1682 10.4286 15.1351ZM11.6049 19.6276V19.7292C11.6049 21.0375 11.6047 22.3459 11.6057 23.6541C11.6057 23.7256 11.612 23.7977 11.6228 23.8685C11.7616 24.7735 12.5004 25.3983 13.4305 25.3983C16.0963 25.3983 18.7622 25.3983 21.4281 25.398C21.5011 25.398 21.5742 25.3946 21.6469 25.3893C22.5983 25.3211 23.3167 24.5605 23.3167 23.621C23.3167 22.3282 23.3167 21.0357 23.3167 19.7429V19.6276H11.6049ZM13.4705 17.6036C13.4906 17.6357 13.5024 17.6568 13.5162 17.6763C13.8161 18.1019 14.1171 18.5267 14.4147 18.9539C14.4495 19.0038 14.4836 19.0237 14.5453 19.0232C14.9044 19.0203 15.2635 19.0218 15.6225 19.0215C15.6496 19.0215 15.6768 19.0177 15.7073 19.0153C15.7006 18.998 15.6991 18.9882 15.6939 18.9809C15.3824 18.5369 15.0714 18.0923 14.7566 17.6504C14.7379 17.6241 14.6894 17.6062 14.6543 17.6053C14.4605 17.601 14.2666 17.6032 14.0728 17.6032C13.877 17.6032 13.6809 17.6032 13.4703 17.6032L13.4705 17.6036ZM18.6032 19.0218C18.5813 18.9858 18.5696 18.9638 18.5555 18.9437C18.2552 18.5175 17.9536 18.0923 17.6552 17.6648C17.6218 17.6171 17.5873 17.6021 17.5308 17.6023C17.1681 17.6046 16.8053 17.6034 16.4426 17.6036C16.419 17.6036 16.3953 17.6059 16.3602 17.6077C16.3772 17.634 16.3865 17.6494 16.3966 17.6639C16.6725 18.0572 16.9565 18.4452 17.2204 18.8462C17.3149 18.9897 17.4181 19.032 17.5838 19.0256C17.9169 19.0126 18.2508 19.0217 18.603 19.0217L18.6032 19.0218ZM19.2443 17.6036C19.2651 17.6367 19.2767 17.6575 19.2903 17.6771C19.5906 18.103 19.8922 18.5281 20.19 18.9555C20.2253 19.0064 20.2614 19.0235 20.3217 19.023C20.6779 19.0205 21.0341 19.0218 21.3903 19.0215C21.418 19.0215 21.4455 19.0181 21.4814 19.0158C21.4709 18.9946 21.4659 18.9803 21.4577 18.9685C21.1494 18.529 20.8415 18.0893 20.5302 17.6519C20.5114 17.6256 20.4641 17.6062 20.4297 17.6055C20.2232 17.6012 20.0163 17.6034 19.8095 17.6034C19.6263 17.6034 19.443 17.6034 19.2443 17.6034V17.6036ZM21.0964 14.5442C21.0757 14.5228 21.0679 14.513 21.0586 14.505C20.6476 14.1524 20.2369 13.7993 19.824 13.4488C19.8032 13.4312 19.7605 13.4237 19.7328 13.4304C19.3634 13.52 18.9948 13.6132 18.6259 13.7056C18.6124 13.709 18.6 13.7159 18.5652 13.7298C18.5948 13.749 18.612 13.7576 18.6261 13.7696C18.9782 14.07 19.3372 14.3632 19.6782 14.6753C19.82 14.8051 19.9441 14.8502 20.1352 14.7906C20.4456 14.6937 20.7659 14.6272 21.0964 14.5442ZM15.4986 15.9453C15.4836 15.9258 15.4778 15.9147 15.4691 15.907C15.0647 15.562 14.6591 15.2185 14.2572 14.8708C14.2072 14.8276 14.1683 14.8209 14.1064 14.837C13.8061 14.9153 13.5043 14.9878 13.2033 15.0628C13.1338 15.0801 13.0649 15.099 12.9773 15.1221C13.0761 15.2072 13.1613 15.2803 13.2462 15.3533C13.5732 15.6341 13.8995 15.9157 14.2286 16.194C14.2572 16.2183 14.309 16.2395 14.3424 16.2316C14.7242 16.1407 15.1046 16.044 15.4986 15.9453ZM15.7861 14.4169C15.7966 14.4366 15.7982 14.4435 15.8026 14.4471C16.2155 14.8019 16.6278 15.1573 17.0436 15.5089C17.0703 15.5314 17.1268 15.5365 17.164 15.5276C17.5122 15.4442 17.8591 15.3562 18.2063 15.269C18.235 15.2619 18.2627 15.2517 18.3029 15.2393C17.8919 14.8874 17.4905 14.5485 17.0961 14.2022C17.013 14.1293 16.9401 14.1147 16.841 14.1511C16.7733 14.1761 16.7002 14.187 16.6295 14.2048C16.3508 14.2749 16.0721 14.3449 15.7861 14.4171V14.4169ZM11.6095 19.0162H12.815C12.8142 19.0048 12.8159 18.9974 12.8131 18.9933C12.4962 18.5418 12.1793 18.0903 11.8607 17.6397C11.8485 17.6224 11.8223 17.6068 11.8015 17.6053C11.7393 17.6008 11.6765 17.6036 11.6097 17.6036V19.0162H11.6095ZM11.5232 16.9402C11.9203 16.8407 12.308 16.7436 12.7209 16.6401C12.6854 16.6142 12.6667 16.6025 12.6501 16.5883C12.2694 16.2639 11.8889 15.9393 11.5087 15.6146C11.3817 15.5062 11.3361 15.5015 11.1727 15.5868C11.2888 16.0348 11.405 16.484 11.5232 16.9404V16.9402ZM22.1289 17.607C22.4405 18.0493 22.7465 18.4745 23.0405 18.9076C23.1138 19.0156 23.1924 19.0427 23.3106 19.011V17.6068H22.1289V17.607ZM22.5126 12.7325C22.1303 12.8287 21.7588 12.922 21.3871 13.0154L21.3783 13.042C21.3947 13.052 21.4127 13.0601 21.427 13.0723C21.8052 13.3944 22.1868 13.7125 22.5581 14.042C22.6562 14.1289 22.74 14.1609 22.8633 14.0891C22.7474 13.6408 22.6306 13.1891 22.5124 12.7323L22.5126 12.7325Z" fill="white"/>
  <path d="M16.3951 20.7748C16.4152 20.7842 16.444 20.7953 16.4707 20.8103C17.2734 21.2656 18.076 21.7212 18.8785 22.1767C19.0242 22.2593 19.1698 22.3421 19.3153 22.4252C19.4252 22.4881 19.4256 22.572 19.3143 22.6353C18.4984 23.0994 17.6821 23.5628 16.8661 24.0263C16.7341 24.1013 16.6026 24.1768 16.4699 24.2506C16.3562 24.3139 16.2827 24.2744 16.2827 24.148C16.2821 23.0681 16.2827 21.9881 16.2819 20.9081C16.2819 20.8371 16.3027 20.7859 16.3951 20.7748Z" fill="white"/>
  <path d="M 56.043 28.894 Q 54.393 30.313 52.346 31.072 Q 50.3 31.832 48.105 31.832 Q 46.421 31.832 44.862 31.394 Q 43.302 30.957 41.94 30.156 Q 40.579 29.356 39.457 28.234 Q 38.334 27.112 37.534 25.75 Q 36.733 24.388 36.296 22.829 Q 35.859 21.269 35.859 19.586 Q 35.859 17.902 36.296 16.334 Q 36.733 14.767 37.534 13.405 Q 38.334 12.043 39.457 10.921 Q 40.579 9.799 41.94 8.998 Q 43.302 8.198 44.862 7.761 Q 46.421 7.323 48.105 7.323 Q 50.3 7.323 52.346 8.074 Q 54.393 8.825 56.043 10.261 L 53.534 14.387 Q 52.495 13.265 51.075 12.662 Q 49.656 12.06 48.105 12.06 Q 46.537 12.06 45.167 12.654 Q 43.797 13.248 42.774 14.263 Q 41.751 15.278 41.156 16.656 Q 40.562 18.034 40.562 19.586 Q 40.562 21.137 41.156 22.499 Q 41.751 23.86 42.774 24.883 Q 43.797 25.907 45.167 26.501 Q 46.537 27.095 48.105 27.095 Q 49.656 27.095 51.075 26.493 Q 52.495 25.89 53.534 24.768 Z" style="fill: url(#gradient-0-0); paint-order: fill; pointer-events: none; white-space: pre;"/>
  <path d="M 72.208 21.863 L 72.208 17.127 Q 72.208 16.153 71.837 15.286 Q 71.465 14.42 70.822 13.776 Q 70.178 13.133 69.312 12.761 Q 68.445 12.39 67.472 12.39 Q 66.498 12.39 65.631 12.761 Q 64.765 13.133 64.121 13.776 Q 63.478 14.42 63.106 15.286 Q 62.735 16.153 62.735 17.127 L 62.735 21.863 Z M 76.945 31.32 L 72.208 31.32 L 72.208 26.583 L 62.735 26.583 L 62.735 31.32 L 58.015 31.32 L 58.015 17.127 Q 58.015 15.163 58.757 13.438 Q 59.5 11.713 60.779 10.426 Q 62.058 9.139 63.783 8.396 Q 65.508 7.653 67.472 7.653 Q 69.435 7.653 71.16 8.396 Q 72.885 9.139 74.172 10.426 Q 75.459 11.713 76.202 13.438 Q 76.945 15.163 76.945 17.127 Z" style="fill: url(#gradient-0-0); paint-order: fill; pointer-events: none; white-space: pre;"/>
  <path d="M 85.289 31.32 L 80.552 31.32 L 80.552 7.653 L 85.289 7.653 L 85.289 19.487 L 94.102 7.653 L 99.482 7.653 L 92.006 17.638 L 99.482 31.32 L 94.102 31.32 L 88.903 21.748 L 85.289 26.583 Z" style="fill: url(#gradient-0-0); paint-order: fill; pointer-events: none; white-space: pre;"/>
  <path d="M 124.662 31.32 L 119.942 31.32 L 119.942 14.42 Q 119.942 13.925 119.752 13.496 Q 119.563 13.067 119.241 12.745 Q 118.919 12.423 118.49 12.241 Q 118.061 12.06 117.566 12.06 Q 117.071 12.06 116.641 12.241 Q 116.212 12.423 115.891 12.745 Q 115.569 13.067 115.387 13.496 Q 115.206 13.925 115.206 14.42 L 115.206 31.32 L 110.469 31.32 L 110.469 14.42 Q 110.469 13.925 110.287 13.496 Q 110.106 13.067 109.784 12.745 Q 109.462 12.423 109.033 12.241 Q 108.604 12.06 108.109 12.06 Q 107.614 12.06 107.185 12.241 Q 106.756 12.423 106.434 12.745 Q 106.112 13.067 105.93 13.496 Q 105.749 13.925 105.749 14.42 L 105.749 31.32 L 101.012 31.32 L 101.012 14.42 Q 101.012 12.951 101.565 11.656 Q 102.118 10.36 103.083 9.395 Q 104.049 8.429 105.345 7.876 Q 106.64 7.323 108.109 7.323 Q 109.429 7.323 110.651 7.794 Q 111.872 8.264 112.846 9.155 Q 113.819 8.264 115.032 7.794 Q 116.245 7.323 117.566 7.323 Q 119.034 7.323 120.33 7.876 Q 121.626 8.429 122.591 9.395 Q 123.557 10.36 124.109 11.656 Q 124.662 12.951 124.662 14.42 Z" style="fill: url(#gradient-0-0); paint-order: fill; pointer-events: none; white-space: pre;"/>
  <path d="M 151.576 19.586 Q 151.576 21.269 151.139 22.829 Q 150.701 24.388 149.909 25.75 Q 149.117 27.112 147.995 28.234 Q 146.873 29.356 145.519 30.156 Q 144.166 30.957 142.598 31.394 Q 141.03 31.832 139.347 31.832 Q 137.663 31.832 136.104 31.394 Q 134.544 30.957 133.183 30.156 Q 131.821 29.356 130.699 28.234 Q 129.576 27.112 128.776 25.75 Q 127.976 24.388 127.538 22.829 Q 127.101 21.269 127.101 19.586 Q 127.101 17.902 127.538 16.334 Q 127.976 14.767 128.776 13.413 Q 129.576 12.06 130.699 10.938 Q 131.821 9.815 133.183 9.023 Q 134.544 8.231 136.104 7.794 Q 137.663 7.356 139.347 7.356 Q 141.03 7.356 142.598 7.794 Q 144.166 8.231 145.519 9.023 Q 146.873 9.815 147.995 10.938 Q 149.117 12.06 149.909 13.413 Q 150.701 14.767 151.139 16.334 Q 151.576 17.902 151.576 19.586 Z M 146.873 19.586 Q 146.873 18.034 146.278 16.656 Q 145.684 15.278 144.669 14.263 Q 143.654 13.248 142.276 12.654 Q 140.898 12.06 139.347 12.06 Q 137.779 12.06 136.409 12.654 Q 135.039 13.248 134.016 14.263 Q 132.993 15.278 132.399 16.656 Q 131.805 18.034 131.805 19.586 Q 131.805 21.137 132.399 22.499 Q 132.993 23.86 134.016 24.883 Q 135.039 25.907 136.409 26.501 Q 137.779 27.095 139.347 27.095 Q 140.898 27.095 142.276 26.501 Q 143.654 25.907 144.669 24.883 Q 145.684 23.86 146.278 22.499 Q 146.873 21.137 146.873 19.586 Z" style="fill: url(#gradient-0-0); paint-order: fill; pointer-events: none; white-space: pre;"/>
  <path d="M 172.062 7.653 L 164.289 31.32 L 159.552 31.32 L 151.812 7.653 L 157.192 7.653 L 161.913 23.448 L 166.649 7.653 Z" style="fill: url(#gradient-0-0); paint-order: fill; pointer-events: none; white-space: pre;"/>
  <path d="M 178.351 31.32 L 173.615 31.32 L 173.615 7.653 L 178.351 7.653 Z" style="fill: url(#gradient-0-0); paint-order: fill; pointer-events: none; white-space: pre;"/>
  <path d="M 198.463 31.32 L 182.24 31.32 L 182.24 7.653 L 198.463 7.653 L 198.463 12.39 L 186.976 12.39 L 186.976 17.127 L 194.75 17.127 L 194.75 21.863 L 186.976 21.863 L 186.976 26.583 L 198.463 26.583 Z" style="fill: url(#gradient-0-0); paint-order: fill; pointer-events: none; white-space: pre;"/>
</svg>